<mxfile host="app.diagrams.net" agent="Mozilla/5.0 (Windows NT 10.0; Win64; x64; rv:129.0) Gecko/20100101 Firefox/129.0" version="24.7.7">
  <diagram name="Page-1" id="BslvBRG5wWvBTsntKtHZ">
    <mxGraphModel dx="1256" dy="693" grid="1" gridSize="10" guides="1" tooltips="1" connect="1" arrows="1" fold="1" page="1" pageScale="1" pageWidth="850" pageHeight="1100" math="0" shadow="0">
      <root>
        <mxCell id="0" />
        <mxCell id="1" parent="0" />
        <mxCell id="XVtsQUxcS6RTe7s6EsMz-28" style="edgeStyle=orthogonalEdgeStyle;rounded=0;orthogonalLoop=1;jettySize=auto;html=1;exitX=1;exitY=0;exitDx=0;exitDy=0;entryX=0;entryY=0.5;entryDx=0;entryDy=0;" edge="1" parent="1" source="OMJ23Js9eibpTbUPFrYe-1" target="OMJ23Js9eibpTbUPFrYe-3">
          <mxGeometry relative="1" as="geometry" />
        </mxCell>
        <mxCell id="XVtsQUxcS6RTe7s6EsMz-29" style="edgeStyle=orthogonalEdgeStyle;rounded=0;orthogonalLoop=1;jettySize=auto;html=1;exitX=1;exitY=0.25;exitDx=0;exitDy=0;entryX=0;entryY=0.5;entryDx=0;entryDy=0;" edge="1" parent="1" source="OMJ23Js9eibpTbUPFrYe-1" target="OMJ23Js9eibpTbUPFrYe-14">
          <mxGeometry relative="1" as="geometry" />
        </mxCell>
        <mxCell id="XVtsQUxcS6RTe7s6EsMz-30" style="edgeStyle=orthogonalEdgeStyle;rounded=0;orthogonalLoop=1;jettySize=auto;html=1;exitX=1;exitY=0.5;exitDx=0;exitDy=0;entryX=0;entryY=0.5;entryDx=0;entryDy=0;" edge="1" parent="1" source="OMJ23Js9eibpTbUPFrYe-1" target="OMJ23Js9eibpTbUPFrYe-13">
          <mxGeometry relative="1" as="geometry" />
        </mxCell>
        <mxCell id="XVtsQUxcS6RTe7s6EsMz-31" style="edgeStyle=orthogonalEdgeStyle;rounded=0;orthogonalLoop=1;jettySize=auto;html=1;exitX=1;exitY=0.75;exitDx=0;exitDy=0;entryX=0;entryY=0.5;entryDx=0;entryDy=0;" edge="1" parent="1" source="OMJ23Js9eibpTbUPFrYe-1" target="OMJ23Js9eibpTbUPFrYe-12">
          <mxGeometry relative="1" as="geometry" />
        </mxCell>
        <mxCell id="XVtsQUxcS6RTe7s6EsMz-32" style="edgeStyle=orthogonalEdgeStyle;rounded=0;orthogonalLoop=1;jettySize=auto;html=1;exitX=1;exitY=1;exitDx=0;exitDy=0;entryX=0;entryY=0.5;entryDx=0;entryDy=0;" edge="1" parent="1" source="OMJ23Js9eibpTbUPFrYe-1" target="OMJ23Js9eibpTbUPFrYe-15">
          <mxGeometry relative="1" as="geometry" />
        </mxCell>
        <mxCell id="XVtsQUxcS6RTe7s6EsMz-33" style="edgeStyle=orthogonalEdgeStyle;rounded=0;orthogonalLoop=1;jettySize=auto;html=1;exitX=0.75;exitY=1;exitDx=0;exitDy=0;entryX=0;entryY=0.5;entryDx=0;entryDy=0;" edge="1" parent="1" source="OMJ23Js9eibpTbUPFrYe-1" target="OMJ23Js9eibpTbUPFrYe-16">
          <mxGeometry relative="1" as="geometry" />
        </mxCell>
        <mxCell id="OMJ23Js9eibpTbUPFrYe-1" value="&lt;font style=&quot;font-size: 12px;&quot;&gt;stepType&lt;/font&gt;" style="rounded=1;whiteSpace=wrap;html=1;" parent="1" vertex="1">
          <mxGeometry x="70" y="250" width="90" height="40" as="geometry" />
        </mxCell>
        <mxCell id="OMJ23Js9eibpTbUPFrYe-7" style="edgeStyle=orthogonalEdgeStyle;rounded=0;orthogonalLoop=1;jettySize=auto;html=1;exitX=1;exitY=0.75;exitDx=0;exitDy=0;entryX=0;entryY=0.5;entryDx=0;entryDy=0;" parent="1" source="OMJ23Js9eibpTbUPFrYe-3" target="OMJ23Js9eibpTbUPFrYe-5" edge="1">
          <mxGeometry relative="1" as="geometry" />
        </mxCell>
        <mxCell id="OMJ23Js9eibpTbUPFrYe-8" style="edgeStyle=orthogonalEdgeStyle;rounded=0;orthogonalLoop=1;jettySize=auto;html=1;exitX=1;exitY=0.25;exitDx=0;exitDy=0;entryX=0;entryY=0.75;entryDx=0;entryDy=0;" parent="1" source="OMJ23Js9eibpTbUPFrYe-3" target="OMJ23Js9eibpTbUPFrYe-4" edge="1">
          <mxGeometry relative="1" as="geometry" />
        </mxCell>
        <mxCell id="OMJ23Js9eibpTbUPFrYe-3" value="&lt;font style=&quot;font-size: 12px;&quot;&gt;stepSelectField&lt;/font&gt;" style="rounded=1;whiteSpace=wrap;html=1;" parent="1" vertex="1">
          <mxGeometry x="240" y="60" width="90" height="40" as="geometry" />
        </mxCell>
        <mxCell id="OMJ23Js9eibpTbUPFrYe-9" style="edgeStyle=orthogonalEdgeStyle;rounded=0;orthogonalLoop=1;jettySize=auto;html=1;exitX=0;exitY=0.25;exitDx=0;exitDy=0;entryX=0.75;entryY=0;entryDx=0;entryDy=0;" parent="1" source="OMJ23Js9eibpTbUPFrYe-4" target="OMJ23Js9eibpTbUPFrYe-3" edge="1">
          <mxGeometry relative="1" as="geometry" />
        </mxCell>
        <mxCell id="OMJ23Js9eibpTbUPFrYe-4" value="&lt;font style=&quot;font-size: 12px;&quot;&gt;stepSelectComma&lt;/font&gt;" style="rounded=1;whiteSpace=wrap;html=1;" parent="1" vertex="1">
          <mxGeometry x="370" y="30" width="100" height="40" as="geometry" />
        </mxCell>
        <mxCell id="OMJ23Js9eibpTbUPFrYe-11" style="edgeStyle=orthogonalEdgeStyle;rounded=0;orthogonalLoop=1;jettySize=auto;html=1;exitX=1;exitY=0.5;exitDx=0;exitDy=0;entryX=0;entryY=0.5;entryDx=0;entryDy=0;" parent="1" source="OMJ23Js9eibpTbUPFrYe-5" target="OMJ23Js9eibpTbUPFrYe-10" edge="1">
          <mxGeometry relative="1" as="geometry" />
        </mxCell>
        <mxCell id="OMJ23Js9eibpTbUPFrYe-5" value="&lt;font style=&quot;font-size: 12px;&quot;&gt;stepSelectFrom&lt;/font&gt;" style="rounded=1;whiteSpace=wrap;html=1;" parent="1" vertex="1">
          <mxGeometry x="370" y="100" width="100" height="40" as="geometry" />
        </mxCell>
        <mxCell id="OMJ23Js9eibpTbUPFrYe-18" style="edgeStyle=orthogonalEdgeStyle;rounded=0;orthogonalLoop=1;jettySize=auto;html=1;exitX=1;exitY=0.75;exitDx=0;exitDy=0;entryX=0;entryY=0.25;entryDx=0;entryDy=0;" parent="1" source="OMJ23Js9eibpTbUPFrYe-10" target="OMJ23Js9eibpTbUPFrYe-17" edge="1">
          <mxGeometry relative="1" as="geometry" />
        </mxCell>
        <mxCell id="OMJ23Js9eibpTbUPFrYe-10" value="&lt;font style=&quot;font-size: 12px;&quot;&gt;stepSelectFromTable&lt;/font&gt;" style="rounded=1;whiteSpace=wrap;html=1;" parent="1" vertex="1">
          <mxGeometry x="510" y="100" width="120" height="40" as="geometry" />
        </mxCell>
        <mxCell id="GDxFe1IuBtcxLVYiiHgO-20" style="edgeStyle=orthogonalEdgeStyle;rounded=0;orthogonalLoop=1;jettySize=auto;html=1;exitX=1;exitY=0.5;exitDx=0;exitDy=0;entryX=0;entryY=0.5;entryDx=0;entryDy=0;" parent="1" source="OMJ23Js9eibpTbUPFrYe-12" target="GDxFe1IuBtcxLVYiiHgO-18" edge="1">
          <mxGeometry relative="1" as="geometry" />
        </mxCell>
        <mxCell id="OMJ23Js9eibpTbUPFrYe-12" value="&lt;font style=&quot;font-size: 12px;&quot;&gt;stepInsertTable&lt;/font&gt;" style="rounded=1;whiteSpace=wrap;html=1;fontSize=12;" parent="1" vertex="1">
          <mxGeometry x="235" y="340" width="100" height="40" as="geometry" />
        </mxCell>
        <mxCell id="OMJ23Js9eibpTbUPFrYe-22" style="edgeStyle=orthogonalEdgeStyle;rounded=0;orthogonalLoop=1;jettySize=auto;html=1;exitX=1;exitY=0.5;exitDx=0;exitDy=0;entryX=0;entryY=0.5;entryDx=0;entryDy=0;" parent="1" source="OMJ23Js9eibpTbUPFrYe-13" target="OMJ23Js9eibpTbUPFrYe-20" edge="1">
          <mxGeometry relative="1" as="geometry" />
        </mxCell>
        <mxCell id="OMJ23Js9eibpTbUPFrYe-13" value="stepUpdateTable" style="rounded=1;whiteSpace=wrap;html=1;fontSize=12;" parent="1" vertex="1">
          <mxGeometry x="235" y="250" width="100" height="40" as="geometry" />
        </mxCell>
        <mxCell id="OMJ23Js9eibpTbUPFrYe-19" style="edgeStyle=orthogonalEdgeStyle;rounded=0;orthogonalLoop=1;jettySize=auto;html=1;exitX=1;exitY=0.5;exitDx=0;exitDy=0;entryX=0;entryY=0.5;entryDx=0;entryDy=0;" parent="1" source="OMJ23Js9eibpTbUPFrYe-14" target="OMJ23Js9eibpTbUPFrYe-17" edge="1">
          <mxGeometry relative="1" as="geometry" />
        </mxCell>
        <mxCell id="OMJ23Js9eibpTbUPFrYe-14" value="stepDeleteFromTable" style="rounded=1;whiteSpace=wrap;html=1;fontSize=12;" parent="1" vertex="1">
          <mxGeometry x="235" y="160" width="125" height="40" as="geometry" />
        </mxCell>
        <mxCell id="XVtsQUxcS6RTe7s6EsMz-12" style="edgeStyle=orthogonalEdgeStyle;rounded=0;orthogonalLoop=1;jettySize=auto;html=1;exitX=1;exitY=0.5;exitDx=0;exitDy=0;entryX=0;entryY=0.5;entryDx=0;entryDy=0;" edge="1" parent="1" source="OMJ23Js9eibpTbUPFrYe-15" target="XVtsQUxcS6RTe7s6EsMz-7">
          <mxGeometry relative="1" as="geometry" />
        </mxCell>
        <mxCell id="OMJ23Js9eibpTbUPFrYe-15" value="stepCreateTable" style="rounded=1;whiteSpace=wrap;html=1;fontSize=12;" parent="1" vertex="1">
          <mxGeometry x="235" y="460" width="100" height="40" as="geometry" />
        </mxCell>
        <mxCell id="OMJ23Js9eibpTbUPFrYe-16" value="stepDropTable" style="rounded=1;whiteSpace=wrap;html=1;fontSize=12;" parent="1" vertex="1">
          <mxGeometry x="235" y="540" width="100" height="40" as="geometry" />
        </mxCell>
        <mxCell id="GDxFe1IuBtcxLVYiiHgO-4" style="edgeStyle=orthogonalEdgeStyle;rounded=0;orthogonalLoop=1;jettySize=auto;html=1;exitX=1;exitY=0.5;exitDx=0;exitDy=0;entryX=0;entryY=0.5;entryDx=0;entryDy=0;" parent="1" source="OMJ23Js9eibpTbUPFrYe-17" target="GDxFe1IuBtcxLVYiiHgO-2" edge="1">
          <mxGeometry relative="1" as="geometry" />
        </mxCell>
        <mxCell id="OMJ23Js9eibpTbUPFrYe-17" value="stepWhere" style="rounded=1;whiteSpace=wrap;html=1;" parent="1" vertex="1">
          <mxGeometry x="800" y="160" width="100" height="40" as="geometry" />
        </mxCell>
        <mxCell id="OMJ23Js9eibpTbUPFrYe-23" style="edgeStyle=orthogonalEdgeStyle;rounded=0;orthogonalLoop=1;jettySize=auto;html=1;exitX=1;exitY=0.5;exitDx=0;exitDy=0;entryX=0;entryY=0.5;entryDx=0;entryDy=0;" parent="1" source="OMJ23Js9eibpTbUPFrYe-20" target="OMJ23Js9eibpTbUPFrYe-21" edge="1">
          <mxGeometry relative="1" as="geometry" />
        </mxCell>
        <mxCell id="OMJ23Js9eibpTbUPFrYe-20" value="stepUpdateSet" style="rounded=1;whiteSpace=wrap;html=1;fontSize=12;" parent="1" vertex="1">
          <mxGeometry x="360" y="250" width="100" height="40" as="geometry" />
        </mxCell>
        <mxCell id="OMJ23Js9eibpTbUPFrYe-26" style="edgeStyle=orthogonalEdgeStyle;rounded=0;orthogonalLoop=1;jettySize=auto;html=1;exitX=1;exitY=0.5;exitDx=0;exitDy=0;entryX=0;entryY=0.5;entryDx=0;entryDy=0;" parent="1" source="OMJ23Js9eibpTbUPFrYe-21" target="OMJ23Js9eibpTbUPFrYe-24" edge="1">
          <mxGeometry relative="1" as="geometry" />
        </mxCell>
        <mxCell id="OMJ23Js9eibpTbUPFrYe-21" value="stepUpdateField" style="rounded=1;whiteSpace=wrap;html=1;fontSize=12;" parent="1" vertex="1">
          <mxGeometry x="480" y="250" width="100" height="40" as="geometry" />
        </mxCell>
        <mxCell id="OMJ23Js9eibpTbUPFrYe-27" style="edgeStyle=orthogonalEdgeStyle;rounded=0;orthogonalLoop=1;jettySize=auto;html=1;exitX=1;exitY=0.5;exitDx=0;exitDy=0;entryX=0;entryY=0.5;entryDx=0;entryDy=0;" parent="1" source="OMJ23Js9eibpTbUPFrYe-24" target="OMJ23Js9eibpTbUPFrYe-25" edge="1">
          <mxGeometry relative="1" as="geometry" />
        </mxCell>
        <mxCell id="OMJ23Js9eibpTbUPFrYe-24" value="stepUpdateEquals" style="rounded=1;whiteSpace=wrap;html=1;fontSize=12;" parent="1" vertex="1">
          <mxGeometry x="600" y="250" width="100" height="40" as="geometry" />
        </mxCell>
        <mxCell id="OMJ23Js9eibpTbUPFrYe-30" style="edgeStyle=orthogonalEdgeStyle;rounded=0;orthogonalLoop=1;jettySize=auto;html=1;exitX=1;exitY=0.5;exitDx=0;exitDy=0;entryX=0;entryY=0.5;entryDx=0;entryDy=0;" parent="1" source="OMJ23Js9eibpTbUPFrYe-25" target="OMJ23Js9eibpTbUPFrYe-28" edge="1">
          <mxGeometry relative="1" as="geometry" />
        </mxCell>
        <mxCell id="OMJ23Js9eibpTbUPFrYe-25" value="stepUpdateValue" style="rounded=1;whiteSpace=wrap;html=1;fontSize=12;" parent="1" vertex="1">
          <mxGeometry x="720" y="250" width="100" height="40" as="geometry" />
        </mxCell>
        <mxCell id="OMJ23Js9eibpTbUPFrYe-32" style="edgeStyle=orthogonalEdgeStyle;rounded=0;orthogonalLoop=1;jettySize=auto;html=1;exitX=1;exitY=0.5;exitDx=0;exitDy=0;entryX=0;entryY=0.5;entryDx=0;entryDy=0;" parent="1" source="OMJ23Js9eibpTbUPFrYe-28" target="OMJ23Js9eibpTbUPFrYe-31" edge="1">
          <mxGeometry relative="1" as="geometry" />
        </mxCell>
        <mxCell id="OMJ23Js9eibpTbUPFrYe-33" style="edgeStyle=orthogonalEdgeStyle;rounded=0;orthogonalLoop=1;jettySize=auto;html=1;exitX=1;exitY=0;exitDx=0;exitDy=0;entryX=0;entryY=0.75;entryDx=0;entryDy=0;" parent="1" source="OMJ23Js9eibpTbUPFrYe-28" target="OMJ23Js9eibpTbUPFrYe-17" edge="1">
          <mxGeometry relative="1" as="geometry" />
        </mxCell>
        <mxCell id="OMJ23Js9eibpTbUPFrYe-28" value="stepUpdateValue" style="rounded=1;whiteSpace=wrap;html=1;fontSize=12;" parent="1" vertex="1">
          <mxGeometry x="840" y="250" width="100" height="40" as="geometry" />
        </mxCell>
        <mxCell id="GDxFe1IuBtcxLVYiiHgO-1" style="edgeStyle=orthogonalEdgeStyle;rounded=0;orthogonalLoop=1;jettySize=auto;html=1;exitX=0.5;exitY=1;exitDx=0;exitDy=0;entryX=0.5;entryY=1;entryDx=0;entryDy=0;" parent="1" source="OMJ23Js9eibpTbUPFrYe-31" target="OMJ23Js9eibpTbUPFrYe-21" edge="1">
          <mxGeometry relative="1" as="geometry" />
        </mxCell>
        <mxCell id="OMJ23Js9eibpTbUPFrYe-31" value="stepUpdateComma" style="rounded=1;whiteSpace=wrap;html=1;fontSize=12;" parent="1" vertex="1">
          <mxGeometry x="970" y="250" width="110" height="40" as="geometry" />
        </mxCell>
        <mxCell id="GDxFe1IuBtcxLVYiiHgO-5" style="edgeStyle=orthogonalEdgeStyle;rounded=0;orthogonalLoop=1;jettySize=auto;html=1;exitX=1;exitY=0.5;exitDx=0;exitDy=0;entryX=0;entryY=0.5;entryDx=0;entryDy=0;" parent="1" source="GDxFe1IuBtcxLVYiiHgO-2" target="GDxFe1IuBtcxLVYiiHgO-3" edge="1">
          <mxGeometry relative="1" as="geometry" />
        </mxCell>
        <mxCell id="GDxFe1IuBtcxLVYiiHgO-2" value="stepWhereField" style="rounded=1;whiteSpace=wrap;html=1;" parent="1" vertex="1">
          <mxGeometry x="930" y="160" width="100" height="40" as="geometry" />
        </mxCell>
        <mxCell id="GDxFe1IuBtcxLVYiiHgO-7" style="edgeStyle=orthogonalEdgeStyle;rounded=0;orthogonalLoop=1;jettySize=auto;html=1;exitX=1;exitY=0.5;exitDx=0;exitDy=0;entryX=0;entryY=0.5;entryDx=0;entryDy=0;" parent="1" source="GDxFe1IuBtcxLVYiiHgO-3" target="GDxFe1IuBtcxLVYiiHgO-6" edge="1">
          <mxGeometry relative="1" as="geometry" />
        </mxCell>
        <mxCell id="GDxFe1IuBtcxLVYiiHgO-3" value="stepWhereOperator" style="rounded=1;whiteSpace=wrap;html=1;" parent="1" vertex="1">
          <mxGeometry x="1060" y="160" width="120" height="40" as="geometry" />
        </mxCell>
        <mxCell id="GDxFe1IuBtcxLVYiiHgO-9" style="edgeStyle=orthogonalEdgeStyle;rounded=0;orthogonalLoop=1;jettySize=auto;html=1;exitX=1;exitY=0.5;exitDx=0;exitDy=0;entryX=0;entryY=0.5;entryDx=0;entryDy=0;" parent="1" source="GDxFe1IuBtcxLVYiiHgO-6" target="GDxFe1IuBtcxLVYiiHgO-8" edge="1">
          <mxGeometry relative="1" as="geometry" />
        </mxCell>
        <mxCell id="GDxFe1IuBtcxLVYiiHgO-6" value="stepWhereValue" style="rounded=1;whiteSpace=wrap;html=1;" parent="1" vertex="1">
          <mxGeometry x="1210" y="160" width="120" height="40" as="geometry" />
        </mxCell>
        <mxCell id="GDxFe1IuBtcxLVYiiHgO-10" style="edgeStyle=orthogonalEdgeStyle;rounded=0;orthogonalLoop=1;jettySize=auto;html=1;exitX=0.5;exitY=0;exitDx=0;exitDy=0;entryX=0.5;entryY=0;entryDx=0;entryDy=0;" parent="1" source="GDxFe1IuBtcxLVYiiHgO-8" target="GDxFe1IuBtcxLVYiiHgO-2" edge="1">
          <mxGeometry relative="1" as="geometry" />
        </mxCell>
        <mxCell id="GDxFe1IuBtcxLVYiiHgO-8" value="stepWhereAnd" style="rounded=1;whiteSpace=wrap;html=1;" parent="1" vertex="1">
          <mxGeometry x="1360" y="160" width="120" height="40" as="geometry" />
        </mxCell>
        <mxCell id="GDxFe1IuBtcxLVYiiHgO-22" style="edgeStyle=orthogonalEdgeStyle;rounded=0;orthogonalLoop=1;jettySize=auto;html=1;exitX=1;exitY=0.5;exitDx=0;exitDy=0;entryX=0;entryY=0.5;entryDx=0;entryDy=0;" parent="1" source="GDxFe1IuBtcxLVYiiHgO-12" target="GDxFe1IuBtcxLVYiiHgO-13" edge="1">
          <mxGeometry relative="1" as="geometry" />
        </mxCell>
        <mxCell id="GDxFe1IuBtcxLVYiiHgO-12" value="&lt;font style=&quot;font-size: 12px;&quot;&gt;stepInsertFields&lt;/font&gt;" style="rounded=1;whiteSpace=wrap;html=1;fontSize=12;" parent="1" vertex="1">
          <mxGeometry x="570" y="340" width="100" height="40" as="geometry" />
        </mxCell>
        <mxCell id="GDxFe1IuBtcxLVYiiHgO-24" style="edgeStyle=orthogonalEdgeStyle;rounded=0;orthogonalLoop=1;jettySize=auto;html=1;exitX=1;exitY=0.5;exitDx=0;exitDy=0;entryX=0;entryY=0.5;entryDx=0;entryDy=0;" parent="1" source="GDxFe1IuBtcxLVYiiHgO-13" target="GDxFe1IuBtcxLVYiiHgO-23" edge="1">
          <mxGeometry relative="1" as="geometry" />
        </mxCell>
        <mxCell id="GDxFe1IuBtcxLVYiiHgO-25" style="edgeStyle=orthogonalEdgeStyle;rounded=0;orthogonalLoop=1;jettySize=auto;html=1;exitX=0.5;exitY=1;exitDx=0;exitDy=0;entryX=0.5;entryY=1;entryDx=0;entryDy=0;" parent="1" source="GDxFe1IuBtcxLVYiiHgO-13" target="GDxFe1IuBtcxLVYiiHgO-12" edge="1">
          <mxGeometry relative="1" as="geometry" />
        </mxCell>
        <mxCell id="GDxFe1IuBtcxLVYiiHgO-13" value="&lt;div style=&quot;font-family: Consolas, &amp;quot;Courier New&amp;quot;, monospace; font-weight: normal; font-size: 12px; line-height: 16px; white-space: pre;&quot;&gt;&lt;div style=&quot;font-size: 12px;&quot;&gt;&lt;span style=&quot;font-size: 12px;&quot;&gt;stepInsertFieldsCommaOrClosingParens&lt;/span&gt;&lt;/div&gt;&lt;/div&gt;" style="rounded=1;whiteSpace=wrap;html=1;fontSize=12;fontColor=default;labelBackgroundColor=default;" parent="1" vertex="1">
          <mxGeometry x="700" y="340" width="250" height="40" as="geometry" />
        </mxCell>
        <mxCell id="GDxFe1IuBtcxLVYiiHgO-21" style="edgeStyle=orthogonalEdgeStyle;rounded=0;orthogonalLoop=1;jettySize=auto;html=1;exitX=1;exitY=0.5;exitDx=0;exitDy=0;entryX=0;entryY=0.5;entryDx=0;entryDy=0;" parent="1" source="GDxFe1IuBtcxLVYiiHgO-18" target="GDxFe1IuBtcxLVYiiHgO-12" edge="1">
          <mxGeometry relative="1" as="geometry" />
        </mxCell>
        <mxCell id="GDxFe1IuBtcxLVYiiHgO-18" value="&lt;font style=&quot;font-size: 12px;&quot;&gt;stepInsertFieldsOpeningParens&lt;/font&gt;" style="rounded=1;whiteSpace=wrap;html=1;fontSize=12;" parent="1" vertex="1">
          <mxGeometry x="360" y="340" width="180" height="40" as="geometry" />
        </mxCell>
        <mxCell id="GDxFe1IuBtcxLVYiiHgO-27" style="edgeStyle=orthogonalEdgeStyle;rounded=0;orthogonalLoop=1;jettySize=auto;html=1;exitX=1;exitY=0.5;exitDx=0;exitDy=0;entryX=0;entryY=0.5;entryDx=0;entryDy=0;" parent="1" source="GDxFe1IuBtcxLVYiiHgO-23" target="GDxFe1IuBtcxLVYiiHgO-26" edge="1">
          <mxGeometry relative="1" as="geometry" />
        </mxCell>
        <mxCell id="GDxFe1IuBtcxLVYiiHgO-23" value="&lt;font style=&quot;font-size: 12px;&quot;&gt;stepInsertValuesWord&lt;/font&gt;" style="rounded=1;whiteSpace=wrap;html=1;fontSize=12;" parent="1" vertex="1">
          <mxGeometry x="970" y="340" width="130" height="40" as="geometry" />
        </mxCell>
        <mxCell id="GDxFe1IuBtcxLVYiiHgO-31" style="edgeStyle=orthogonalEdgeStyle;rounded=0;orthogonalLoop=1;jettySize=auto;html=1;exitX=1;exitY=0.5;exitDx=0;exitDy=0;entryX=0;entryY=0.5;entryDx=0;entryDy=0;" parent="1" source="GDxFe1IuBtcxLVYiiHgO-26" target="GDxFe1IuBtcxLVYiiHgO-30" edge="1">
          <mxGeometry relative="1" as="geometry" />
        </mxCell>
        <mxCell id="GDxFe1IuBtcxLVYiiHgO-26" value="&lt;font style=&quot;font-size: 12px;&quot;&gt;stepInsertValuesOpeningParens&lt;/font&gt;" style="rounded=1;whiteSpace=wrap;html=1;fontSize=12;" parent="1" vertex="1">
          <mxGeometry x="1120" y="340" width="180" height="40" as="geometry" />
        </mxCell>
        <mxCell id="GDxFe1IuBtcxLVYiiHgO-35" style="edgeStyle=orthogonalEdgeStyle;rounded=0;orthogonalLoop=1;jettySize=auto;html=1;exitX=0.5;exitY=1;exitDx=0;exitDy=0;entryX=0.5;entryY=0;entryDx=0;entryDy=0;" parent="1" source="GDxFe1IuBtcxLVYiiHgO-30" target="GDxFe1IuBtcxLVYiiHgO-32" edge="1">
          <mxGeometry relative="1" as="geometry" />
        </mxCell>
        <mxCell id="GDxFe1IuBtcxLVYiiHgO-30" value="&lt;font style=&quot;font-size: 12px;&quot;&gt;stepInsertValues&lt;/font&gt;" style="rounded=1;whiteSpace=wrap;html=1;fontSize=12;" parent="1" vertex="1">
          <mxGeometry x="1320" y="340" width="130" height="40" as="geometry" />
        </mxCell>
        <mxCell id="GDxFe1IuBtcxLVYiiHgO-36" style="edgeStyle=orthogonalEdgeStyle;rounded=0;orthogonalLoop=1;jettySize=auto;html=1;exitX=0.5;exitY=1;exitDx=0;exitDy=0;entryX=0.5;entryY=0;entryDx=0;entryDy=0;" parent="1" source="GDxFe1IuBtcxLVYiiHgO-32" target="GDxFe1IuBtcxLVYiiHgO-34" edge="1">
          <mxGeometry relative="1" as="geometry" />
        </mxCell>
        <mxCell id="GDxFe1IuBtcxLVYiiHgO-32" value="&lt;font style=&quot;font-size: 12px;&quot;&gt;stepInsertValues&lt;/font&gt;CommaOrClosingParens" style="rounded=1;whiteSpace=wrap;html=1;fontSize=12;" parent="1" vertex="1">
          <mxGeometry x="1270" y="430" width="230" height="40" as="geometry" />
        </mxCell>
        <mxCell id="GDxFe1IuBtcxLVYiiHgO-37" style="edgeStyle=orthogonalEdgeStyle;rounded=0;orthogonalLoop=1;jettySize=auto;html=1;exitX=0;exitY=0.5;exitDx=0;exitDy=0;entryX=0.5;entryY=1;entryDx=0;entryDy=0;" parent="1" source="GDxFe1IuBtcxLVYiiHgO-34" target="GDxFe1IuBtcxLVYiiHgO-26" edge="1">
          <mxGeometry relative="1" as="geometry" />
        </mxCell>
        <mxCell id="GDxFe1IuBtcxLVYiiHgO-34" value="&lt;div style=&quot;font-family: Consolas, &amp;quot;Courier New&amp;quot;, monospace; font-weight: normal; font-size: 12px; line-height: 16px; white-space: pre;&quot;&gt;&lt;div&gt;&lt;span style=&quot;&quot;&gt;stepInsertValuesCommaBeforeOpeningParens&lt;/span&gt;&lt;/div&gt;&lt;/div&gt;" style="rounded=1;whiteSpace=wrap;html=1;fontSize=12;labelBackgroundColor=default;fontColor=default;" parent="1" vertex="1">
          <mxGeometry x="1247.5" y="520" width="275" height="40" as="geometry" />
        </mxCell>
        <mxCell id="XVtsQUxcS6RTe7s6EsMz-4" value="" style="verticalLabelPosition=bottom;verticalAlign=top;html=1;shape=mxgraph.flowchart.or;" vertex="1" parent="1">
          <mxGeometry x="320" y="530" width="20" height="20" as="geometry" />
        </mxCell>
        <mxCell id="XVtsQUxcS6RTe7s6EsMz-5" value="" style="verticalLabelPosition=bottom;verticalAlign=top;html=1;shape=mxgraph.flowchart.or;" vertex="1" parent="1">
          <mxGeometry x="120" y="620" width="20" height="20" as="geometry" />
        </mxCell>
        <mxCell id="XVtsQUxcS6RTe7s6EsMz-6" value="Represents potential end" style="text;html=1;align=center;verticalAlign=middle;whiteSpace=wrap;rounded=0;" vertex="1" parent="1">
          <mxGeometry x="130" y="615" width="100" height="30" as="geometry" />
        </mxCell>
        <mxCell id="XVtsQUxcS6RTe7s6EsMz-13" style="edgeStyle=orthogonalEdgeStyle;rounded=0;orthogonalLoop=1;jettySize=auto;html=1;exitX=1;exitY=0.5;exitDx=0;exitDy=0;entryX=0;entryY=0.5;entryDx=0;entryDy=0;" edge="1" parent="1" source="XVtsQUxcS6RTe7s6EsMz-7" target="XVtsQUxcS6RTe7s6EsMz-8">
          <mxGeometry relative="1" as="geometry" />
        </mxCell>
        <mxCell id="XVtsQUxcS6RTe7s6EsMz-7" value="stepCreateFieldsOpeningParens" style="rounded=1;whiteSpace=wrap;html=1;fontSize=12;" vertex="1" parent="1">
          <mxGeometry x="360" y="460" width="190" height="40" as="geometry" />
        </mxCell>
        <mxCell id="XVtsQUxcS6RTe7s6EsMz-14" style="edgeStyle=orthogonalEdgeStyle;rounded=0;orthogonalLoop=1;jettySize=auto;html=1;exitX=1;exitY=0.5;exitDx=0;exitDy=0;entryX=0;entryY=0.5;entryDx=0;entryDy=0;" edge="1" parent="1" source="XVtsQUxcS6RTe7s6EsMz-8" target="XVtsQUxcS6RTe7s6EsMz-9">
          <mxGeometry relative="1" as="geometry" />
        </mxCell>
        <mxCell id="XVtsQUxcS6RTe7s6EsMz-8" value="stepCreateFields" style="rounded=1;whiteSpace=wrap;html=1;fontSize=12;" vertex="1" parent="1">
          <mxGeometry x="580" y="460" width="120" height="40" as="geometry" />
        </mxCell>
        <mxCell id="XVtsQUxcS6RTe7s6EsMz-20" style="edgeStyle=orthogonalEdgeStyle;rounded=0;orthogonalLoop=1;jettySize=auto;html=1;exitX=1;exitY=0.5;exitDx=0;exitDy=0;entryX=0;entryY=0.5;entryDx=0;entryDy=0;" edge="1" parent="1" source="XVtsQUxcS6RTe7s6EsMz-9" target="XVtsQUxcS6RTe7s6EsMz-10">
          <mxGeometry relative="1" as="geometry" />
        </mxCell>
        <mxCell id="XVtsQUxcS6RTe7s6EsMz-25" style="edgeStyle=orthogonalEdgeStyle;rounded=0;orthogonalLoop=1;jettySize=auto;html=1;exitX=0.25;exitY=1;exitDx=0;exitDy=0;entryX=0.75;entryY=1;entryDx=0;entryDy=0;" edge="1" parent="1" source="XVtsQUxcS6RTe7s6EsMz-9" target="XVtsQUxcS6RTe7s6EsMz-8">
          <mxGeometry relative="1" as="geometry" />
        </mxCell>
        <mxCell id="XVtsQUxcS6RTe7s6EsMz-9" value="stepCreateColumnType" style="rounded=1;whiteSpace=wrap;html=1;fontSize=12;" vertex="1" parent="1">
          <mxGeometry x="730" y="460" width="140" height="40" as="geometry" />
        </mxCell>
        <mxCell id="XVtsQUxcS6RTe7s6EsMz-23" style="edgeStyle=orthogonalEdgeStyle;rounded=0;orthogonalLoop=1;jettySize=auto;html=1;exitX=0.5;exitY=0;exitDx=0;exitDy=0;entryX=0.5;entryY=0;entryDx=0;entryDy=0;" edge="1" parent="1" source="XVtsQUxcS6RTe7s6EsMz-10" target="XVtsQUxcS6RTe7s6EsMz-8">
          <mxGeometry relative="1" as="geometry" />
        </mxCell>
        <mxCell id="XVtsQUxcS6RTe7s6EsMz-24" style="edgeStyle=orthogonalEdgeStyle;rounded=0;orthogonalLoop=1;jettySize=auto;html=1;exitX=0.5;exitY=1;exitDx=0;exitDy=0;entryX=1;entryY=0.5;entryDx=0;entryDy=0;" edge="1" parent="1" source="XVtsQUxcS6RTe7s6EsMz-10" target="XVtsQUxcS6RTe7s6EsMz-11">
          <mxGeometry relative="1" as="geometry" />
        </mxCell>
        <mxCell id="XVtsQUxcS6RTe7s6EsMz-10" value="stepCreateColumnSize" style="rounded=1;whiteSpace=wrap;html=1;fontSize=12;" vertex="1" parent="1">
          <mxGeometry x="930" y="460" width="140" height="40" as="geometry" />
        </mxCell>
        <mxCell id="XVtsQUxcS6RTe7s6EsMz-26" style="edgeStyle=orthogonalEdgeStyle;rounded=0;orthogonalLoop=1;jettySize=auto;html=1;exitX=0;exitY=0.5;exitDx=0;exitDy=0;entryX=0.25;entryY=1;entryDx=0;entryDy=0;" edge="1" parent="1" source="XVtsQUxcS6RTe7s6EsMz-11" target="XVtsQUxcS6RTe7s6EsMz-8">
          <mxGeometry relative="1" as="geometry" />
        </mxCell>
        <mxCell id="XVtsQUxcS6RTe7s6EsMz-27" style="edgeStyle=orthogonalEdgeStyle;rounded=0;orthogonalLoop=1;jettySize=auto;html=1;exitX=0.25;exitY=1;exitDx=0;exitDy=0;" edge="1" parent="1" source="XVtsQUxcS6RTe7s6EsMz-11">
          <mxGeometry relative="1" as="geometry">
            <mxPoint x="930" y="610.1764705882354" as="targetPoint" />
          </mxGeometry>
        </mxCell>
        <mxCell id="XVtsQUxcS6RTe7s6EsMz-11" value="stepCreateConstraints" style="rounded=1;whiteSpace=wrap;html=1;fontSize=12;" vertex="1" parent="1">
          <mxGeometry x="830" y="570" width="140" height="40" as="geometry" />
        </mxCell>
        <mxCell id="XVtsQUxcS6RTe7s6EsMz-15" value="" style="verticalLabelPosition=bottom;verticalAlign=top;html=1;shape=mxgraph.flowchart.or;" vertex="1" parent="1">
          <mxGeometry x="860" y="450" width="20" height="20" as="geometry" />
        </mxCell>
        <mxCell id="XVtsQUxcS6RTe7s6EsMz-34" value="" style="verticalLabelPosition=bottom;verticalAlign=top;html=1;shape=mxgraph.flowchart.or;" vertex="1" parent="1">
          <mxGeometry x="960" y="560" width="20" height="20" as="geometry" />
        </mxCell>
        <mxCell id="XVtsQUxcS6RTe7s6EsMz-36" value="" style="verticalLabelPosition=bottom;verticalAlign=top;html=1;shape=mxgraph.flowchart.or;" vertex="1" parent="1">
          <mxGeometry x="1070" y="240" width="20" height="20" as="geometry" />
        </mxCell>
        <mxCell id="XVtsQUxcS6RTe7s6EsMz-38" value="" style="verticalLabelPosition=bottom;verticalAlign=top;html=1;shape=mxgraph.flowchart.or;" vertex="1" parent="1">
          <mxGeometry x="890" y="150" width="20" height="20" as="geometry" />
        </mxCell>
        <mxCell id="XVtsQUxcS6RTe7s6EsMz-39" value="" style="verticalLabelPosition=bottom;verticalAlign=top;html=1;shape=mxgraph.flowchart.or;" vertex="1" parent="1">
          <mxGeometry x="1510" y="510" width="20" height="20" as="geometry" />
        </mxCell>
        <mxCell id="XVtsQUxcS6RTe7s6EsMz-40" value="" style="verticalLabelPosition=bottom;verticalAlign=top;html=1;shape=mxgraph.flowchart.or;" vertex="1" parent="1">
          <mxGeometry x="1320" y="150" width="20" height="20" as="geometry" />
        </mxCell>
        <mxCell id="XVtsQUxcS6RTe7s6EsMz-42" value="" style="verticalLabelPosition=bottom;verticalAlign=top;html=1;shape=mxgraph.flowchart.or;" vertex="1" parent="1">
          <mxGeometry x="1060" y="450" width="20" height="20" as="geometry" />
        </mxCell>
      </root>
    </mxGraphModel>
  </diagram>
</mxfile>
